<svg width="93" height="47" viewBox="0 0 93 47" fill="none" xmlns="http://www.w3.org/2000/svg">
<path d="M21.7687 46.4865H43L0 -3.642e-05L0 23.5573L21.7687 46.4865Z" fill="url(#paint0_linear_7_79)"/>
<path d="M0 23.5338V46.4865L43 0H21.2095L0 23.5338Z" fill="url(#paint1_linear_7_79)"/>
<path d="M45.455 27.005H41.285L40.595 29H38.39L42.155 18.515H44.6L48.365 29H46.145L45.455 27.005ZM44.885 25.325L43.37 20.945L41.855 25.325H44.885ZM56.8973 18.53V20.225H54.1073V29H52.0073V20.225H49.2173V18.53H56.8973ZM60.5295 18.53V29H58.4295V18.53H60.5295ZM68.5143 29L64.7043 24.335V29H62.6043V18.53H64.7043V23.225L68.5143 18.53H71.0493L66.7293 23.72L71.1693 29H68.5143ZM78.9706 27.005H74.8006L74.1106 29H71.9056L75.6706 18.515H78.1156L81.8806 29H79.6606L78.9706 27.005ZM78.4006 25.325L76.8856 20.945L75.3706 25.325H78.4006ZM89.7079 27.005H85.5379L84.8479 29H82.6429L86.4079 18.515H88.8529L92.6179 29H90.3979L89.7079 27.005ZM89.1379 25.325L87.6229 20.945L86.1079 25.325H89.1379Z" fill="black"/>
<defs>
<linearGradient id="paint0_linear_7_79" x1="0.871623" y1="10.75" x2="28.473" y2="40.6756" gradientUnits="userSpaceOnUse">
<stop stop-color="#4CBEFF"/>
<stop offset="0.271142" stop-color="#0027F4"/>
<stop offset="0.509922" stop-color="#001BFF"/>
<stop offset="1" stop-color="#4CBEFF"/>
</linearGradient>
<linearGradient id="paint1_linear_7_79" x1="18.3041" y1="13.0743" x2="1.4527" y2="31.3784" gradientUnits="userSpaceOnUse">
<stop stop-color="#91FEDC"/>
<stop offset="1" stop-color="#29BCFB"/>
</linearGradient>
</defs>
</svg>
